<svg width="65" height="66" viewBox="0 0 65 66" fill="none" xmlns="http://www.w3.org/2000/svg">
<circle cx="32.5" cy="33.4414" r="32" fill="white" stroke="white"/>
<g clip-path="url(#clip0_2_5149)">
<path d="M41.7969 15.9414H23.2031C18.6727 15.9414 15 19.6141 15 24.1445V42.7383C15 47.2687 18.6727 50.9414 23.2031 50.9414H41.7969C46.3273 50.9414 50 47.2687 50 42.7383V24.1445C50 19.6141 46.3273 15.9414 41.7969 15.9414Z" fill="#0073AA"/>
<path d="M20.7734 33.4387C20.7734 38.081 23.4713 42.0928 27.3834 43.994L21.7889 28.6657C21.1182 30.1675 20.7722 31.7939 20.7734 33.4387ZM40.4191 32.8468C40.4191 31.3975 39.8985 30.3937 39.452 29.6123C38.8574 28.6463 38.3001 27.8281 38.3001 26.8621C38.3001 25.7839 39.1178 24.7804 40.2695 24.7804C40.3216 24.7804 40.3708 24.7868 40.4216 24.7897C38.335 22.8781 35.5551 21.7109 32.5016 21.7109C28.4044 21.7109 24.7995 23.8131 22.7025 26.9973C22.9776 27.0055 23.237 27.0114 23.4572 27.0114C24.684 27.0114 26.5829 26.8624 26.5829 26.8624C27.2151 26.8252 27.2897 27.7538 26.6581 27.8286C26.6581 27.8286 26.0228 27.9033 25.3158 27.9404L29.5866 40.644L32.1532 32.9463L30.326 27.94C29.6945 27.9029 29.0962 27.8281 29.0962 27.8281C28.4641 27.7911 28.5382 26.8248 29.1703 26.8621C29.1703 26.8621 31.1071 27.0108 32.2595 27.0108C33.4861 27.0108 35.3851 26.8621 35.3851 26.8621C36.0179 26.8248 36.0921 27.7534 35.4603 27.8281C35.4603 27.8281 34.8236 27.9029 34.118 27.94L38.3564 40.5474L39.5262 36.6383C40.0333 35.016 40.4191 33.8509 40.4191 32.8468Z" fill="white"/>
<path d="M32.7064 34.4652L29.1875 44.6904C30.2633 45.0073 31.3791 45.1682 32.5006 45.1683C33.8271 45.1687 35.144 44.9439 36.3952 44.5034C36.3626 44.4521 36.3347 44.398 36.3118 44.3418L32.7064 34.4652ZM42.7916 27.8125C42.8449 28.2122 42.8713 28.6151 42.8706 29.0184C42.8706 30.2085 42.6483 31.5464 41.9788 33.2193L38.3963 43.577C41.8831 41.5437 44.2283 37.7663 44.2283 33.4396C44.2285 31.4004 43.7077 29.4829 42.7916 27.8125Z" fill="white"/>
<path d="M32.4997 19.7695C24.9613 19.7695 18.8281 25.9023 18.8281 33.4406C18.8281 40.9798 24.9613 47.1123 32.4997 47.1123C40.0377 47.1123 46.1719 40.9798 46.1719 33.4406C46.1716 25.9023 40.0377 19.7695 32.4997 19.7695ZM32.4997 46.4857C25.307 46.4857 19.455 40.6336 19.455 33.4406C19.455 26.2479 25.3068 20.3964 32.4997 20.3964C39.6921 20.3964 45.5437 26.2479 45.5437 33.4406C45.5437 40.6336 39.6921 46.4857 32.4997 46.4857Z" fill="white"/>
</g>
<defs>
<clipPath id="clip0_2_5149">
<rect width="35" height="35" fill="white" transform="translate(15 15.9414)"/>
</clipPath>
</defs>
</svg>
