<svg width="65" height="66" viewBox="0 0 65 66" fill="none" xmlns="http://www.w3.org/2000/svg">
<circle cx="32.5" cy="33.4414" r="32" fill="white" stroke="white"/>
<g clip-path="url(#clip0_2_5178)">
<path d="M27 50.9401C30.312 50.9401 33 48.3268 33 45.1068V39.2734H27C23.688 39.2734 21 41.8868 21 45.1068C21 48.3268 23.688 50.9401 27 50.9401Z" fill="#0ACF83"/>
<path d="M21 33.4427C21 30.2227 23.688 27.6094 27 27.6094H33V39.276H27C23.688 39.276 21 36.6627 21 33.4427Z" fill="#A259FF"/>
<path d="M21 21.7747C21 18.5547 23.688 15.9414 27 15.9414H33V27.6081H27C23.688 27.6081 21 24.9947 21 21.7747Z" fill="#F24E1E"/>
<path d="M33 15.9414H39C42.312 15.9414 45 18.5547 45 21.7747C45 24.9947 42.312 27.6081 39 27.6081H33V15.9414Z" fill="#FF7262"/>
<path d="M45 33.4427C45 36.6627 42.312 39.276 39 39.276C35.688 39.276 33 36.6627 33 33.4427C33 30.2227 35.688 27.6094 39 27.6094C42.312 27.6094 45 30.2227 45 33.4427Z" fill="#1ABCFE"/>
</g>
<defs>
<clipPath id="clip0_2_5178">
<rect width="24" height="35" fill="white" transform="translate(21 15.9414)"/>
</clipPath>
</defs>
</svg>
