<svg width="39" height="45" viewBox="0 0 39 45" fill="none" xmlns="http://www.w3.org/2000/svg">
<path d="M21.3938 29.048V28.8588C22.8403 28.1971 23.8656 26.8253 24.0888 25.2545C24.6987 25.0333 25.1287 24.4441 25.1287 23.777C25.1287 23.2027 24.8185 22.6887 24.3384 22.4145C24.3883 22.2581 24.4294 22.1003 24.461 21.9428C24.7164 20.676 24.4254 19.3813 23.6416 18.2971C22.8705 17.2305 21.7114 16.495 20.3779 16.226C20.0192 16.1538 19.6536 16.1172 19.2911 16.1172C18.1473 16.1172 17.0314 16.486 16.1488 17.1557C15.24 17.8453 14.6185 18.8251 14.3988 19.9145C14.2322 20.7406 14.3002 21.5927 14.5947 22.3922C14.0956 22.6605 13.7651 23.1878 13.7651 23.7772C13.7651 24.4531 14.2016 25.0443 14.8205 25.2604C15.0498 26.8686 16.1085 28.2534 17.6026 28.8988V29.0481C14.4992 29.7511 12.3594 32.0724 12.3594 34.7849V35.5094H15.0603V35.5081H15.3602V35.5094H26.637V34.7849C26.637 32.0723 24.4972 29.7511 21.3938 29.048ZM19.2911 17.5661C19.5572 17.5661 19.8266 17.5932 20.0917 17.6464C21.0666 17.8432 21.9103 18.3757 22.4673 19.1462C22.9867 19.8643 23.1959 20.709 23.0622 21.538C22.3493 21.2052 21.4121 20.8534 20.4263 20.7184C18.5733 20.4651 18.5436 20.3789 18.4333 20.0587L18.0794 19.0349L17.2657 19.755C17.1791 19.8311 16.5234 20.4075 15.7668 21.0345C15.7459 20.7563 15.7633 20.4775 15.8192 20.2007C16.127 18.6741 17.5871 17.5661 19.2911 17.5661ZM16.2212 22.5351C16.7293 22.124 17.2313 21.6995 17.5945 21.388C18.098 21.8421 18.8829 21.9698 20.2298 22.154C21.1434 22.279 22.0393 22.6448 22.6874 22.9662V24.5989C22.6874 26.3818 21.2372 27.832 19.4545 27.832C17.6715 27.832 16.2213 26.3817 16.2213 24.5989V22.5351H16.2212ZM19.0515 29.2631C19.351 29.2896 19.6488 29.2864 19.9448 29.2552V29.7025L19.497 29.9508L19.0515 29.7033V29.2631ZM13.8823 34.0596C14.215 32.437 15.6397 31.0882 17.6026 30.5419V30.5559L19.4957 31.6077L21.3938 30.5564V30.5419C23.3569 31.0882 24.7818 32.4373 25.1141 34.0602L15.3544 34.059V34.0595L13.8823 34.0596Z" fill="#060606"/>
<path d="M26.6376 38.6691H12.36C11.9281 38.6691 11.5781 38.3191 11.5781 37.8873C11.5781 37.4555 11.9281 37.1055 12.36 37.1055H26.6376C27.0694 37.1055 27.4194 37.4555 27.4194 37.8873C27.4194 38.3191 27.0694 38.6691 26.6376 38.6691Z" fill="#060606"/>
<path d="M36.532 4.77091H23.2825V2.39559C23.2825 1.22544 22.3305 0.273438 21.1603 0.273438H17.8375C16.6674 0.273438 15.7154 1.22544 15.7154 2.39559V4.77089H2.4659C1.29573 4.77089 0.34375 5.72289 0.34375 6.89304V42.6047C0.34375 43.7749 1.29575 44.7269 2.4659 44.7269H36.532C37.7021 44.7269 38.6541 43.7749 38.6541 42.6047V6.89306C38.6541 5.72289 37.7021 4.77091 36.532 4.77091ZM17.2791 2.39559C17.2791 2.08766 17.5296 1.83711 17.8375 1.83711H21.1603C21.4682 1.83711 21.7188 2.08766 21.7188 2.39559V4.77089V6.33456V9.54386C21.7188 9.85176 21.4683 10.1023 21.1603 10.1023H17.8375C17.5296 10.1023 17.2791 9.85179 17.2791 9.54386V6.33459V4.77091V2.39559ZM37.0904 42.6048C37.0904 42.9127 36.8399 43.1632 36.532 43.1632H2.4659C2.15798 43.1632 1.90742 42.9127 1.90742 42.6048V6.89306C1.90742 6.58514 2.15798 6.33459 2.4659 6.33459H15.7154V9.54389C15.7154 10.714 16.6674 11.666 17.8375 11.666H21.1604C22.3305 11.666 23.2825 10.714 23.2825 9.54389V6.33459H36.532C36.8399 6.33459 37.0905 6.58514 37.0905 6.89306L37.0904 42.6048Z" fill="#060606"/>
</svg>
