<svg width="64" height="64" viewBox="0 0 64 64" fill="none" xmlns="http://www.w3.org/2000/svg">
<path d="M35 8H29C28.448 8 28 7.552 28 7C28 6.448 28.448 6 29 6H35C35.552 6 36 6.448 36 7C36 7.552 35.552 8 35 8Z" fill="white"/>
<path d="M43 62H21C18.242 62 16 59.756 16 57V23C16 22.448 16.448 22 17 22C17.552 22 18 22.448 18 23V57C18 58.654 19.346 60 21 60H43C44.654 60 46 58.654 46 57V23C46 22.448 46.448 22 47 22C47.552 22 48 22.448 48 23V57C48 59.756 45.758 62 43 62Z" fill="white"/>
<path d="M47 30C46.448 30 46 29.552 46 29V7C46 5.346 44.654 4 43 4H21C19.346 4 18 5.346 18 7V29C18 29.552 17.552 30 17 30C16.448 30 16 29.552 16 29V7C16 4.244 18.242 2 21 2H43C45.758 2 48 4.244 48 7V29C48 29.552 47.552 30 47 30Z" fill="white"/>
<path d="M53 12.1C52.448 12.1 52 11.752 52 11.2V11C52 10.448 52.448 10 53 10C53.552 10 54 10.448 54 11C54 11.552 53.552 12.1 53 12.1Z" fill="white"/>
<path d="M53 16.1C52.448 16.1 52 15.752 52 15.2V15C52 14.448 52.448 14 53 14C53.552 14 54 14.448 54 15C54 15.552 53.552 16.1 53 16.1Z" fill="white"/>
<path d="M53 20.1C52.448 20.1 52 19.752 52 19.2V19C52 18.448 52.448 18 53 18C53.552 18 54 18.448 54 19C54 19.552 53.552 20.1 53 20.1Z" fill="white"/>
<path d="M11 45.8998C10.448 45.8998 10 45.5518 10 44.9998V44.7998C10 44.2478 10.448 43.7998 11 43.7998C11.552 43.7998 12 44.2478 12 44.7998C12 45.3518 11.552 45.8998 11 45.8998Z" fill="white"/>
<path d="M11 49.8998C10.448 49.8998 10 49.5518 10 48.9998V48.7998C10 48.2478 10.448 47.7998 11 47.7998C11.552 47.7998 12 48.2478 12 48.7998C12 49.3518 11.552 49.8998 11 49.8998Z" fill="white"/>
<path d="M11 53.8998C10.448 53.8998 10 53.5518 10 52.9998V52.7998C10 52.2478 10.448 51.7998 11 51.7998C11.552 51.7998 12 52.2478 12 52.7998C12 53.3518 11.552 53.8998 11 53.8998Z" fill="white"/>
<path d="M49.682 54C49.612 54 49.54 53.994 49.47 53.978C48.93 53.862 48.588 53.33 48.704 52.79L49.364 49.73C49.444 49.354 49.734 49.06 50.106 48.97C51.05 48.742 51.97 48.358 52.84 47.828C53.162 47.628 53.576 47.634 53.898 47.838L55.878 49.104L57.104 47.868L55.838 45.904C55.63 45.582 55.626 45.168 55.824 44.842C56.354 43.972 56.738 43.052 56.964 42.108C57.054 41.736 57.346 41.448 57.72 41.364L60 40.858V39.144L57.722 38.638C57.348 38.554 57.056 38.266 56.966 37.894C56.74 36.95 56.354 36.03 55.826 35.16C55.626 34.834 55.63 34.422 55.838 34.1L57.106 32.118L55.882 30.894L53.9 32.162C53.578 32.368 53.166 32.372 52.842 32.172C51.97 31.642 51.05 31.258 50.108 31.03C49.734 30.94 49.446 30.644 49.366 30.27L48.874 28H48C47.448 28 47 27.552 47 27C47 26.448 47.448 26 48 26H49.68C50.15 26 50.558 26.33 50.656 26.79L51.19 29.256C51.922 29.478 52.64 29.778 53.332 30.152L55.48 28.778C55.876 28.526 56.392 28.582 56.726 28.914L59.088 31.274C59.42 31.606 59.476 32.124 59.222 32.52L57.848 34.668C58.222 35.362 58.522 36.08 58.744 36.814L61.214 37.362C61.674 37.464 62 37.872 62 38.34V41.66C62 42.128 61.674 42.536 61.216 42.636L58.746 43.184C58.524 43.918 58.224 44.636 57.85 45.328L59.222 47.456C59.478 47.85 59.424 48.37 59.092 48.702L56.73 51.082C56.396 51.416 55.878 51.472 55.482 51.22L53.334 49.846C52.64 50.22 51.924 50.52 51.192 50.742L50.658 53.208C50.556 53.68 50.14 54 49.682 54Z" fill="white"/>
<path d="M50.7819 45.156C50.4619 45.156 50.1459 45 49.9519 44.714C49.6439 44.256 49.7659 43.634 50.2259 43.326C51.3359 42.578 51.9999 41.334 51.9999 40C51.9999 37.794 50.2059 36 47.9999 36C47.7279 36 47.4579 36.028 47.1999 36.08C46.6639 36.188 46.1299 35.844 46.0179 35.3C45.9079 34.758 46.2559 34.23 46.7979 34.12C47.1899 34.042 47.5939 34 47.9999 34C51.3079 34 53.9999 36.692 53.9999 40C53.9999 42.002 53.0059 43.866 51.3379 44.986C51.1679 45.1 50.9739 45.156 50.7819 45.156Z" fill="white"/>
<path d="M16 29.9999C12.692 29.9999 10 27.3079 10 23.9999C10 21.9899 11 20.1239 12.676 19.0039C13.13 18.6999 13.754 18.8199 14.062 19.2819C14.368 19.7399 14.244 20.3619 13.784 20.6679C12.668 21.4159 12 22.6599 12 23.9999C12 26.2059 13.794 27.9999 16 27.9999C16.268 27.9999 16.532 27.9739 16.784 27.9219C17.314 27.8119 17.852 28.1619 17.962 28.7059C18.072 29.2479 17.72 29.7739 17.178 29.8819C16.796 29.9599 16.404 29.9999 16 29.9999Z" fill="white"/>
<path d="M16 37.9999H14.32C13.85 37.9999 13.442 37.6699 13.344 37.2099L12.81 34.7439C12.078 34.5219 11.36 34.2219 10.668 33.8479L8.52 35.2219C8.122 35.4739 7.608 35.4199 7.274 35.0859L4.912 32.7259C4.58 32.3939 4.524 31.8759 4.778 31.4799L6.152 29.3319C5.778 28.6379 5.478 27.9199 5.256 27.1859L2.786 26.6379C2.326 26.5359 2 26.1279 2 25.6599V22.3399C2 21.8719 2.326 21.4639 2.784 21.3639L5.254 20.8159C5.476 20.0819 5.776 19.3639 6.15 18.6719L4.78 16.5419C4.524 16.1479 4.578 15.6279 4.91 15.2959L7.272 12.9159C7.602 12.5799 8.122 12.5239 8.52 12.7779L10.668 14.1519C11.362 13.7779 12.078 13.4779 12.81 13.2559L13.344 10.7899C13.46 10.2479 14.002 9.90389 14.532 10.0239C15.072 10.1399 15.414 10.6719 15.298 11.2119L14.638 14.2719C14.558 14.6479 14.268 14.9419 13.896 15.0319C12.952 15.2599 12.032 15.6439 11.16 16.1739C10.836 16.3739 10.424 16.3679 10.102 16.1639L8.122 14.8979L6.894 16.1339L8.16 18.0979C8.37 18.4199 8.374 18.8339 8.174 19.1599C7.644 20.0299 7.26 20.9499 7.034 21.8939C6.944 22.2659 6.652 22.5539 6.278 22.6379L4 23.1419V24.8559L6.278 25.3619C6.652 25.4459 6.944 25.7339 7.034 26.1059C7.26 27.0499 7.646 27.9699 8.174 28.8399C8.374 29.1659 8.37 29.5779 8.162 29.8999L6.894 31.8799L8.118 33.1039L10.1 31.8359C10.422 31.6319 10.836 31.6279 11.158 31.8259C12.03 32.3559 12.95 32.7399 13.892 32.9679C14.266 33.0579 14.554 33.3539 14.634 33.7279L15.126 35.9999H16C16.552 35.9999 17 36.4479 17 36.9999C17 37.5519 16.552 37.9999 16 37.9999Z" fill="white"/>
<path d="M31.0002 37.0002C30.9202 37.0002 30.8402 36.9902 30.7582 36.9702C30.2202 36.8362 29.8962 36.2942 30.0302 35.7582L32.0302 27.7582C32.1622 27.2202 32.6962 26.8962 33.2422 27.0302C33.7802 27.1642 34.1042 27.7062 33.9702 28.2422L31.9702 36.2422C31.8582 36.6982 31.4502 37.0002 31.0002 37.0002Z" fill="white"/>
<path d="M37 37.0005C36.744 37.0005 36.488 36.9025 36.292 36.7085C35.902 36.3185 35.902 35.6845 36.292 35.2945L39.586 32.0005L36.294 28.7085C35.904 28.3185 35.904 27.6845 36.294 27.2945C36.684 26.9045 37.318 26.9045 37.708 27.2945L41.708 31.2945C42.098 31.6845 42.098 32.3185 41.708 32.7085L37.708 36.7085C37.512 36.9025 37.256 37.0005 37 37.0005Z" fill="white"/>
<path d="M27 37.0005C26.744 37.0005 26.488 36.9025 26.292 36.7085L22.292 32.7085C21.902 32.3185 21.902 31.6845 22.292 31.2945L26.292 27.2945C26.682 26.9045 27.316 26.9045 27.706 27.2945C28.096 27.6845 28.096 28.3185 27.706 28.7085L24.414 32.0005L27.706 35.2925C28.096 35.6825 28.096 36.3165 27.706 36.7065C27.512 36.9025 27.256 37.0005 27 37.0005Z" fill="white"/>
</svg>
