<svg width="56" height="58" viewBox="0 0 56 58" fill="none" xmlns="http://www.w3.org/2000/svg">
<path fill-rule="evenodd" clip-rule="evenodd" d="M49.8535 29.0866L49.0505 30.5056L48.2541 29.0866V6.57178C48.2541 6.3922 48.4095 6.24039 48.5844 6.24039H49.5232C49.6981 6.24039 49.8535 6.3922 49.8535 6.57178V29.0866ZM51.919 7.20628H51.4658V6.57178C51.4658 5.49927 50.5917 4.6267 49.5232 4.6267H48.5844C47.5159 4.6267 46.6418 5.49927 46.6418 6.57178V29.2986C46.6418 29.4372 46.6742 29.574 46.7454 29.6943L48.3513 32.5462C48.6636 33.102 49.4539 33.0844 49.7563 32.5462L51.3622 29.6943C51.427 29.574 51.4658 29.4372 51.4658 29.2986V8.8201H51.919C52.2427 8.8201 52.5082 9.08468 52.5082 9.41172V16.2074C52.5082 16.6528 52.8708 17.0143 53.3177 17.0143C53.7644 17.0143 54.127 16.6528 54.127 16.2074V9.41172C54.127 8.19508 53.1363 7.20628 51.919 7.20628ZM19.2259 15.8718C19.4266 15.8202 19.6015 15.6943 19.7115 15.5201L22.3469 11.3224L24.9887 15.5201C25.0988 15.6943 25.2671 15.8202 25.4679 15.8718L30.3503 17.1317L27.2098 20.8549C27.0738 21.012 27.0091 21.2154 27.022 21.4207L27.3069 26.5413L22.6577 24.6167C22.4621 24.5352 22.2385 24.5352 22.0425 24.6167L17.3869 26.5413L17.6783 21.4207C17.6848 21.2154 17.62 21.0118 17.4905 20.8549L14.3435 17.1317L19.2259 15.8718ZM16.0466 21.6498L15.7035 27.7322C15.6729 28.3251 16.2663 28.7501 16.8172 28.5229L22.3471 26.2349L27.8768 28.5229C28.4361 28.7491 29.0278 28.3195 28.9905 27.7322L28.6473 21.6498L32.4159 17.1908C32.7881 16.745 32.5826 16.0403 31.9951 15.8889L26.1804 14.3895L23.0334 9.37729C22.7213 8.88218 21.9889 8.86708 21.6671 9.37626L18.5137 14.3895L12.6991 15.8889C12.1273 16.038 11.8935 16.7304 12.2846 17.1908L16.0466 21.6498ZM37.3694 46.5032C37.3694 46.9486 37.0133 47.3101 36.5664 47.3101H33.018C32.5713 47.3101 32.2087 46.9486 32.2087 46.5032C32.2087 46.0577 32.5713 45.6963 33.018 45.6963H36.5664C37.0132 45.6964 37.3694 46.0577 37.3694 46.5032ZM46.6935 43.1242C46.6935 43.5707 46.3309 43.931 45.8842 43.931H33.018C32.5713 43.931 32.2087 43.5706 32.2087 43.1242C32.2087 42.6788 32.5713 42.3173 33.018 42.3173H45.8842C46.3309 42.3175 46.6935 42.6788 46.6935 43.1242ZM26.6335 44.2764C26.4976 44.4344 26.4263 44.6368 26.4392 44.8421L26.5364 46.5699L24.9823 45.9254C24.781 45.8441 24.5621 45.8441 24.3608 45.9254L22.8067 46.5699L22.9039 44.8421C22.9168 44.6368 22.8456 44.4344 22.7161 44.2764L21.6735 43.0458L23.3118 42.6239C23.5125 42.5723 23.6809 42.4466 23.791 42.2723L24.6717 40.8748L25.5523 42.2723C25.6624 42.4466 25.8307 42.5723 26.0314 42.6239L27.6697 43.0458L26.6335 44.2764ZM29.3142 41.8042L26.7436 41.1416L25.3515 38.9298C25.0408 38.4264 24.3024 38.4264 23.9917 38.9298L22.5996 41.1416L20.029 41.8042C19.4728 41.9482 19.2155 42.6362 19.6145 43.1061L21.2721 45.0727L21.1231 47.7609C21.0856 48.3585 21.6905 48.777 22.2368 48.5526L24.6715 47.5446L27.1062 48.5526C27.6567 48.7753 28.2573 48.3578 28.2199 47.7609L28.071 45.0727L29.7286 43.1061C30.1181 42.6476 29.8884 41.95 29.3142 41.8042ZM49.9117 53.0697V38.3576C49.9117 37.8378 49.4843 37.4153 48.9663 37.4153H17.1474C16.6294 37.4153 16.202 37.838 16.202 38.3576V53.0697C16.202 53.5895 16.6294 54.0122 17.1474 54.0122H48.9663C49.4843 54.0122 49.9117 53.5895 49.9117 53.0697ZM12.6407 50.3448H14.5897V38.3576C14.5897 36.9484 15.7359 35.8015 17.1474 35.8015H45.405V34.6903C45.405 34.1705 44.9841 33.7478 44.4661 33.7478H12.6407C12.1227 33.7478 11.7018 34.1705 11.7018 34.6903V49.4025C11.7018 49.9222 12.1227 50.3448 12.6407 50.3448ZM4.39787 47.4209H10.0895V34.6904C10.0895 33.281 11.2356 32.1343 12.6407 32.1343H41.2155V4.90638C41.2155 4.39975 40.8011 3.98772 40.2961 3.98772H8.63262V6.60724C8.63262 8.0027 7.49944 9.13857 6.10078 9.13857H3.48485V46.5033C3.48485 47.0088 3.89278 47.4209 4.39787 47.4209ZM7.02033 5.12922V6.60711C7.02033 7.11271 6.60587 7.52474 6.10078 7.52474H4.62443L7.02033 5.12922ZM48.9663 35.8015H47.0173V34.6903C47.0173 33.2809 45.8711 32.1342 44.4661 32.1342H42.8278V4.90638C42.8278 3.51015 41.6882 2.37402 40.296 2.37402H7.82968C7.61605 2.37402 7.40881 2.45902 7.25342 2.6107L2.10565 7.76154C1.95665 7.91207 1.87256 8.11764 1.87256 8.33166V46.5032C1.87256 47.8997 3.00574 49.0346 4.39787 49.0346H10.0895V49.4026C10.0895 50.8118 11.2356 51.9587 12.6407 51.9587H14.5897V53.0698C14.5897 54.4792 15.7359 55.626 17.1474 55.626H48.9663C50.3779 55.626 51.524 54.4792 51.524 53.0698V38.3576C51.524 36.9484 50.3779 35.8015 48.9663 35.8015Z" fill="white"/>
</svg>
