<svg width="64" height="64" viewBox="0 0 64 64" fill="none" xmlns="http://www.w3.org/2000/svg">
<path d="M62.0002 16.0001H59.6232C60.082 14.2266 60.1287 12.3716 59.7597 10.5773C59.3907 8.78291 58.6157 7.09687 57.4943 5.64835C56.3728 4.19984 54.9346 3.0273 53.2899 2.22062C51.6451 1.41394 49.8376 0.994532 48.0057 0.994532C46.1738 0.994532 44.3662 1.41394 42.7214 2.22062C41.0767 3.0273 39.6385 4.19984 38.517 5.64835C37.3956 7.09687 36.6207 8.78291 36.2516 10.5773C35.8826 12.3716 35.9293 14.2266 36.3882 16.0001H24.4142L11.1572 2.74314C10.6054 2.18695 9.94931 1.74519 9.22644 1.4432C8.50356 1.14122 7.72817 0.984969 6.94475 0.98341C6.16134 0.981851 5.38532 1.13502 4.66125 1.43412C3.93718 1.73322 3.2793 2.17237 2.72537 2.72636C2.17145 3.28036 1.73238 3.93829 1.43336 4.66239C1.13435 5.3865 0.981271 6.16253 0.982923 6.94595C0.984575 7.72936 1.14092 8.50474 1.44299 9.22758C1.74506 9.95042 2.1869 10.6065 2.74316 11.1581L3.18416 11.5981C1.78622 13.156 1.00903 15.173 1.00016 17.2661V55.0001C0.999103 56.051 1.20531 57.0918 1.60698 58.0629C2.00864 59.0339 2.59788 59.9163 3.34095 60.6593C4.08403 61.4024 4.96636 61.9917 5.93744 62.3933C6.90852 62.795 7.94928 63.0012 9.00016 63.0001H62.0002C62.2654 63.0001 62.5197 62.8948 62.7073 62.7072C62.8948 62.5197 63.0002 62.2654 63.0002 62.0001V17.0001C63.0002 16.7349 62.8948 16.4806 62.7073 16.293C62.5197 16.1055 62.2654 16.0001 62.0002 16.0001ZM38.0672 11.8161C38.3623 9.27877 39.6172 6.95053 41.5746 5.30911C43.5319 3.66769 46.0432 2.83756 48.5931 2.98903C51.1431 3.14049 53.5385 4.26207 55.2877 6.12366C57.037 7.98524 58.0075 10.4457 58.0002 13.0001C58.0081 15.2334 57.2591 17.4034 55.8752 19.1561C54.0984 21.3937 53.0902 24.1444 53.0002 27.0001H51.0002V21.0001H52.0002C52.5935 21.0001 53.1735 20.8242 53.6669 20.4946C54.1602 20.1649 54.5447 19.6964 54.7718 19.1482C54.9989 18.6 55.0583 17.9968 54.9425 17.4149C54.8268 16.8329 54.541 16.2984 54.1215 15.8788C53.7019 15.4593 53.1674 15.1735 52.5854 15.0578C52.0035 14.942 51.4003 15.0014 50.8521 15.2285C50.3039 15.4556 49.8354 15.8401 49.5057 16.3334C49.1761 16.8268 49.0002 17.4068 49.0002 18.0001V19.0001H47.0002V18.0001C47.0002 17.4068 46.8242 16.8268 46.4946 16.3334C46.1649 15.8401 45.6964 15.4556 45.1482 15.2285C44.6 15.0014 43.9968 14.942 43.4149 15.0578C42.8329 15.1735 42.2984 15.4593 41.8788 15.8788C41.4593 16.2984 41.1736 16.8329 41.0578 17.4149C40.942 17.9968 41.0015 18.6 41.2285 19.1482C41.4556 19.6964 41.8401 20.1649 42.3334 20.4946C42.8268 20.8242 43.4068 21.0001 44.0002 21.0001H45.0002V27.0001H43.0002C42.8981 24.1153 41.8712 21.3398 40.0712 19.0831C38.4798 17.0155 37.7605 14.4072 38.0672 11.8161ZM50.0002 33.0001C50.0002 33.5306 49.7894 34.0393 49.4144 34.4144C49.0393 34.7894 48.5306 35.0001 48.0002 35.0001C47.4697 35.0001 46.961 34.7894 46.5859 34.4144C46.2109 34.0393 46.0002 33.5306 46.0002 33.0001H50.0002ZM44.0002 31.0001C43.7349 31.0001 43.4806 30.8948 43.293 30.7072C43.1055 30.5197 43.0002 30.2654 43.0002 30.0001V29.0001H53.0002V30.0001C53.0002 30.2654 52.8948 30.5197 52.7073 30.7072C52.5197 30.8948 52.2654 31.0001 52.0002 31.0001H44.0002ZM45.0002 19.0001H44.0002C43.8024 19.0001 43.609 18.9415 43.4446 18.8316C43.2801 18.7217 43.152 18.5656 43.0763 18.3828C43.0006 18.2001 42.9808 17.999 43.0194 17.805C43.058 17.6111 43.1532 17.4329 43.293 17.293C43.4329 17.1532 43.6111 17.0579 43.8051 17.0194C43.999 16.9808 44.2001 17.0006 44.3828 17.0763C44.5656 17.1519 44.7217 17.2801 44.8316 17.4446C44.9415 17.609 45.0002 17.8024 45.0002 18.0001V19.0001ZM49.0002 27.0001H47.0002V21.0001H49.0002V27.0001ZM51.0002 19.0001V18.0001C51.0002 17.8024 51.0588 17.609 51.1687 17.4446C51.2786 17.2801 51.4347 17.1519 51.6175 17.0763C51.8002 17.0006 52.0013 16.9808 52.1952 17.0194C52.3892 17.0579 52.5674 17.1532 52.7073 17.293C52.8471 17.4329 52.9424 17.6111 52.9809 17.805C53.0195 17.999 52.9997 18.2001 52.924 18.3828C52.8483 18.5656 52.7202 18.7217 52.5557 18.8316C52.3913 18.9415 52.1979 19.0001 52.0002 19.0001H51.0002ZM30.5092 30.5081L27.7372 29.6771L29.6772 27.7371L30.5092 30.5081ZM25.5612 29.0241L23.0002 28.2561V26.0001H25.0002C25.2654 26.0001 25.5197 25.8948 25.7073 25.7072C25.8948 25.5197 26.0002 25.2654 26.0002 25.0001V23.0001H28.2562L29.0242 25.5621L25.5612 29.0241ZM10.4142 16.0001L12.5002 13.9141L22.5862 24.0001H22.0002C21.7349 24.0001 21.4806 24.1055 21.293 24.293C21.1055 24.4806 21.0002 24.7349 21.0002 25.0001V26.5851L10.4142 16.0001ZM9.00016 14.5861L7.41416 13.0001L13.0002 7.41414L14.5862 9.00014L9.00016 14.5861ZM25.0002 21.0001C24.7349 21.0001 24.4806 21.1055 24.293 21.293C24.1055 21.4806 24.0002 21.7349 24.0002 22.0001V22.5861L13.9142 12.5001L16.0002 10.4141L26.5862 21.0001H25.0002ZM6.95016 3.00014C7.46908 2.99874 7.98313 3.10027 8.46255 3.29887C8.94197 3.49747 9.37724 3.78919 9.74316 4.15714L11.5862 6.00014L6.00016 11.5851L4.15716 9.74214C3.60462 9.18986 3.22831 8.4861 3.07583 7.7199C2.92335 6.9537 3.00156 6.1595 3.30056 5.43775C3.59955 4.71601 4.1059 4.09917 4.75554 3.66526C5.40519 3.23136 6.16893 2.99989 6.95016 3.00014ZM4.60016 13.0141L15.0002 23.4141V49.7081C14.8782 49.5701 14.7505 49.4368 14.6172 49.3081C13.8656 48.5589 12.9711 47.9684 11.9867 47.5719C11.0023 47.1754 9.94822 46.981 8.88716 47.0001C7.76811 47.0212 6.66595 47.2769 5.65189 47.7505C4.63783 48.2242 3.73446 48.9055 3.00016 49.7501V17.2661C3.00577 15.7027 3.57369 14.1934 4.60016 13.0141ZM61.0002 61.0001H9.00016C8.20502 61.0002 7.4178 60.8423 6.68425 60.5354C5.9507 60.2286 5.28545 59.779 4.72718 59.2128C4.1689 58.6467 3.72873 57.9751 3.43225 57.2374C3.13577 56.4996 2.98889 55.7102 3.00016 54.9151C3.05015 53.3624 3.68925 51.8869 4.78766 50.7883C5.88608 49.6898 7.36145 49.0504 8.91416 49.0001H9.00016C10.5915 49.0001 12.1176 49.6323 13.2428 50.7575C14.368 51.8827 15.0002 53.4088 15.0002 55.0001C15.0002 55.2654 15.1055 55.5197 15.293 55.7072C15.4806 55.8948 15.7349 56.0001 16.0002 56.0001C16.2654 56.0001 16.5197 55.8948 16.7073 55.7072C16.8948 55.5197 17.0002 55.2654 17.0002 55.0001V25.4141L21.2932 29.7071C21.4102 29.8243 21.5545 29.9105 21.7132 29.9581L31.7132 32.9581C31.8063 32.9858 31.903 33 32.0002 33.0001C32.156 33.0002 32.3097 32.9637 32.449 32.8938C32.5883 32.8238 32.7093 32.7223 32.8024 32.5972C32.8955 32.4722 32.958 32.3272 32.9851 32.1737C33.0121 32.0202 33.0029 31.8625 32.9582 31.7131L29.9582 21.7131C29.9106 21.5545 29.8243 21.4102 29.7072 21.2931L26.4142 18.0001H37.1002C37.4723 18.816 37.9349 19.5875 38.4792 20.3001C40.0716 22.2806 40.9587 24.7352 41.0002 27.2761V30.0001C41.0002 30.7958 41.3162 31.5589 41.8788 32.1215C42.4414 32.6841 43.2045 33.0001 44.0002 33.0001C44.0002 34.061 44.4216 35.0784 45.1717 35.8286C45.9219 36.5787 46.9393 37.0001 48.0002 37.0001C49.061 37.0001 50.0784 36.5787 50.8286 35.8286C51.5787 35.0784 52.0002 34.061 52.0002 33.0001C52.7958 33.0001 53.5589 32.6841 54.1215 32.1215C54.6841 31.5589 55.0002 30.7958 55.0002 30.0001V27.2711C55.028 24.7688 55.8898 22.3473 57.4492 20.3901C58.0262 19.6529 58.5152 18.8508 58.9062 18.0001H61.0002V61.0001Z" fill="white"/>
<path d="M39.861 51.619C40.133 51.1004 40.3582 50.5586 40.534 50H42C42.2652 50 42.5196 49.8946 42.7071 49.7071C42.8946 49.5196 43 49.2652 43 49V45C43 44.7348 42.8946 44.4804 42.7071 44.2929C42.5196 44.1054 42.2652 44 42 44H40.534C40.3582 43.4414 40.133 42.8996 39.861 42.381L40.9 41.343C41.0875 41.1555 41.1928 40.9012 41.1928 40.636C41.1928 40.3708 41.0875 40.1165 40.9 39.929L38.071 37.1C37.8835 36.9125 37.6292 36.8072 37.364 36.8072C37.0988 36.8072 36.8445 36.9125 36.657 37.1L35.619 38.137C35.1002 37.8659 34.5584 37.6414 34 37.466V36C34 35.7348 33.8946 35.4804 33.7071 35.2929C33.5196 35.1054 33.2652 35 33 35H29C28.7348 35 28.4804 35.1054 28.2929 35.2929C28.1054 35.4804 28 35.7348 28 36V37.466C27.4415 37.6417 26.8997 37.8666 26.381 38.138L25.343 37.1C25.1519 36.9193 24.899 36.8187 24.636 36.8187C24.373 36.8187 24.1201 36.9193 23.929 37.1L21.1 39.929C20.9125 40.1165 20.8072 40.3708 20.8072 40.636C20.8072 40.9012 20.9125 41.1555 21.1 41.343L22.138 42.381C21.8664 42.8996 21.6415 43.4414 21.466 44H20C19.7348 44 19.4804 44.1054 19.2929 44.2929C19.1054 44.4804 19 44.7348 19 45V49C19 49.2652 19.1054 49.5196 19.2929 49.7071C19.4804 49.8946 19.7348 50 20 50H21.466C21.6418 50.5586 21.867 51.1004 22.139 51.619L21.1 52.657C20.9125 52.8445 20.8072 53.0988 20.8072 53.364C20.8072 53.6292 20.9125 53.8835 21.1 54.071L23.929 56.9C24.1165 57.0875 24.3708 57.1928 24.636 57.1928C24.9012 57.1928 25.1555 57.0875 25.343 56.9L26.381 55.862C26.8996 56.1336 27.4414 56.3585 28 56.534V58C28 58.2652 28.1054 58.5196 28.2929 58.7071C28.4804 58.8946 28.7348 59 29 59H33C33.2652 59 33.5196 58.8946 33.7071 58.7071C33.8946 58.5196 34 58.2652 34 58V56.534C34.5586 56.3582 35.1004 56.133 35.619 55.861L36.657 56.9C36.8481 57.0807 37.101 57.1813 37.364 57.1813C37.627 57.1813 37.8799 57.0807 38.071 56.9L40.9 54.071C41.0875 53.8835 41.1928 53.6292 41.1928 53.364C41.1928 53.0988 41.0875 52.8445 40.9 52.657L39.861 51.619ZM38.8 48.778C38.5998 49.6544 38.2525 50.4906 37.773 51.251C37.6518 51.4428 37.5994 51.6702 37.6245 51.8957C37.6496 52.1212 37.7506 52.3315 37.911 52.492L38.783 53.364L37.369 54.778L36.497 53.906C36.3367 53.7457 36.1266 53.6446 35.9013 53.6194C35.676 53.5941 35.4488 53.6462 35.257 53.767C34.4966 54.2474 33.66 54.5947 32.783 54.794C32.562 54.8443 32.3647 54.9682 32.2234 55.1453C32.082 55.3225 32.005 55.5424 32.005 55.769V57H30V55.769C30 55.5424 29.923 55.3225 29.7817 55.1453C29.6403 54.9682 29.443 54.8443 29.222 54.794C28.345 54.5947 27.5084 54.2474 26.748 53.767C26.5562 53.6462 26.329 53.5941 26.1037 53.6194C25.8784 53.6446 25.6683 53.7457 25.508 53.906L24.636 54.778L23.222 53.364L24.094 52.492C24.2544 52.3315 24.3554 52.1212 24.3805 51.8957C24.4056 51.6702 24.3532 51.4428 24.232 51.251C23.7525 50.4906 23.4052 49.6544 23.205 48.778C23.1547 48.557 23.0308 48.3597 22.8537 48.2183C22.6765 48.077 22.4566 48 22.23 48H21V46H22.23C22.4566 46 22.6765 45.923 22.8537 45.7817C23.0308 45.6403 23.1547 45.443 23.205 45.222C23.4052 44.3456 23.7525 43.5094 24.232 42.749C24.3532 42.5572 24.4056 42.3298 24.3805 42.1043C24.3554 41.8788 24.2544 41.6685 24.094 41.508L23.222 40.636L24.636 39.222L25.508 40.094C25.6683 40.2543 25.8784 40.3554 26.1037 40.3806C26.329 40.4059 26.5562 40.3538 26.748 40.233C27.5083 39.7526 28.345 39.4053 29.222 39.206C29.4431 39.1557 29.6406 39.0316 29.782 38.8543C29.9233 38.6769 30.0002 38.4568 30 38.23V37H32V38.23C31.9998 38.4568 32.0767 38.6769 32.218 38.8543C32.3594 39.0316 32.5569 39.1557 32.778 39.206C33.655 39.4053 34.4917 39.7526 35.252 40.233C35.4438 40.3538 35.671 40.4059 35.8963 40.3806C36.1216 40.3554 36.3317 40.2543 36.492 40.094L37.364 39.222L38.778 40.636L37.906 41.508C37.7456 41.6685 37.6446 41.8788 37.6195 42.1043C37.5944 42.3298 37.6468 42.5572 37.768 42.749C38.2493 43.5091 38.5982 44.3453 38.8 45.222C38.8501 45.4421 38.9733 45.6388 39.1494 45.7801C39.3255 45.9214 39.5442 45.9989 39.77 46H41V48H39.77C39.5442 48.0011 39.3255 48.0786 39.1494 48.2199C38.9733 48.3612 38.8501 48.5579 38.8 48.778Z" fill="white"/>
<path d="M31 41C29.8133 41 28.6533 41.3519 27.6666 42.0112C26.6799 42.6705 25.9109 43.6075 25.4567 44.7039C25.0026 45.8003 24.8838 47.0067 25.1153 48.1705C25.3468 49.3344 25.9182 50.4035 26.7574 51.2426C27.5965 52.0818 28.6656 52.6532 29.8295 52.8847C30.9933 53.1162 32.1997 52.9974 33.2961 52.5433C34.3925 52.0892 35.3295 51.3201 35.9888 50.3334C36.6481 49.3467 37 48.1867 37 47C36.9984 45.4092 36.3658 43.884 35.2409 42.7591C34.116 41.6342 32.5908 41.0016 31 41ZM31 51C30.2089 51 29.4355 50.7654 28.7777 50.3259C28.1199 49.8864 27.6072 49.2616 27.3045 48.5307C27.0017 47.7998 26.9225 46.9956 27.0769 46.2196C27.2312 45.4437 27.6122 44.731 28.1716 44.1716C28.731 43.6122 29.4437 43.2312 30.2196 43.0769C30.9956 42.9225 31.7998 43.0017 32.5307 43.3045C33.2616 43.6072 33.8864 44.1199 34.3259 44.7777C34.7654 45.4355 35 46.2089 35 47C35 48.0609 34.5786 49.0783 33.8284 49.8284C33.0783 50.5786 32.0609 51 31 51Z" fill="white"/>
<path d="M54 13H56C55.9976 10.879 55.154 8.84555 53.6542 7.34578C52.1544 5.846 50.121 5.00238 48 5V7C49.5908 7.00159 51.116 7.63424 52.2409 8.75911C53.3658 9.88399 53.9984 11.4092 54 13Z" fill="white"/>
<path d="M52.5 44C51.5717 44 50.6815 43.6312 50.0251 42.9749C49.3688 42.3185 49 41.4283 49 40.5V39H47V40.5C47.0016 41.9582 47.5816 43.3562 48.6127 44.3873C49.6438 45.4184 51.0418 45.9984 52.5 46C53.6935 46 54.8381 46.4741 55.682 47.318C56.5259 48.1619 57 49.3065 57 50.5C57 51.6935 56.5259 52.8381 55.682 53.682C54.8381 54.5259 53.6935 55 52.5 55H42V57H52.5C54.2239 57 55.8772 56.3152 57.0962 55.0962C58.3152 53.8772 59 52.2239 59 50.5C59 48.7761 58.3152 47.1228 57.0962 45.9038C55.8772 44.6848 54.2239 44 52.5 44Z" fill="white"/>
</svg>
