<svg width="64" height="64" viewBox="0 0 64 64" fill="none" xmlns="http://www.w3.org/2000/svg">
<g clip-path="url(#clip0_77_3)">
<path fill-rule="evenodd" clip-rule="evenodd" d="M60.2825 63.5902H3.7175C1.6675 63.5902 0 61.6844 0 59.3416V4.65873C0 2.31587 1.6675 0.410156 3.7175 0.410156H60.2825C62.3325 0.410156 64 2.31587 64 4.65873V59.3416C64 61.6844 62.3325 63.5902 60.2825 63.5902ZM3.7175 2.12444C2.495 2.12444 1.5 3.26158 1.5 4.65873V59.3416C1.5 60.7387 2.495 61.8759 3.7175 61.8759H60.2825C61.505 61.8759 62.5 60.7387 62.5 59.3416V4.65873C62.5 3.26158 61.505 2.12444 60.2825 2.12444H3.7175Z" fill="white"/>
<path fill-rule="evenodd" clip-rule="evenodd" d="M63.25 16.749H0.75C0.33625 16.749 0 16.3661 0 15.8918C0 15.419 0.33625 15.0347 0.75 15.0347H63.25C63.6637 15.0347 64 15.419 64 15.8918C64 16.3661 63.6637 16.749 63.25 16.749Z" fill="white"/>
<path fill-rule="evenodd" clip-rule="evenodd" d="M11.4611 12.2445H7.84359C6.89359 12.2445 6.12109 11.3617 6.12109 10.276V6.88312C6.12109 5.79741 6.89359 4.91455 7.84359 4.91455H11.4611C12.4111 4.91455 13.1848 5.79741 13.1848 6.88312V10.276C13.1848 11.3617 12.4111 12.2445 11.4611 12.2445ZM7.84359 6.62884C7.72234 6.62884 7.62109 6.74598 7.62109 6.88312V10.276C7.62109 10.4146 7.72234 10.5303 7.84359 10.5303H11.4611C11.5823 10.5303 11.6848 10.4146 11.6848 10.276V6.88312C11.6848 6.74598 11.5823 6.62884 11.4611 6.62884H7.84359Z" fill="white"/>
<path fill-rule="evenodd" clip-rule="evenodd" d="M20.2238 12.2445H16.6075C15.6575 12.2445 14.8838 11.3617 14.8838 10.276V6.88312C14.8838 5.79741 15.6575 4.91455 16.6075 4.91455H20.2238C21.175 4.91455 21.9475 5.79741 21.9475 6.88312V10.276C21.9475 11.3617 21.175 12.2445 20.2238 12.2445ZM16.6075 6.62884C16.4863 6.62884 16.3838 6.74598 16.3838 6.88312V10.276C16.3838 10.4146 16.4863 10.5303 16.6075 10.5303H20.2238C20.345 10.5303 20.4475 10.4146 20.4475 10.276V6.88312C20.4475 6.74598 20.345 6.62884 20.2238 6.62884H16.6075Z" fill="white"/>
<path fill-rule="evenodd" clip-rule="evenodd" d="M28.9872 12.2445H25.3697C24.4197 12.2445 23.646 11.3617 23.646 10.276V6.88312C23.646 5.79741 24.4197 4.91455 25.3697 4.91455H28.9872C29.9372 4.91455 30.7097 5.79741 30.7097 6.88312V10.276C30.7097 11.3617 29.9372 12.2445 28.9872 12.2445ZM25.3697 6.62884C25.2485 6.62884 25.146 6.74598 25.146 6.88312V10.276C25.146 10.4146 25.2485 10.5303 25.3697 10.5303H28.9872C29.1085 10.5303 29.2097 10.4146 29.2097 10.276V6.88312C29.2097 6.74598 29.1085 6.62884 28.9872 6.62884H25.3697Z" fill="white"/>
<path fill-rule="evenodd" clip-rule="evenodd" d="M35.1523 7.72314H57.6861V9.43743H35.1523V7.72314Z" fill="white"/>
<path fill-rule="evenodd" clip-rule="evenodd" d="M17.9026 51.9459C13.0589 51.9459 9.12012 46.2787 9.12012 39.313V27.5359C9.12012 27.063 9.45512 26.6787 9.86887 26.6787C10.2839 26.6787 10.6189 27.063 10.6189 27.5359V39.313C10.6189 42.2559 11.4014 45.0216 12.8201 47.103C14.1964 49.1201 16.0014 50.2316 17.9026 50.2316C19.8026 50.2316 21.6076 49.1201 22.9839 47.103C24.4026 45.0216 25.1851 42.2559 25.1851 39.313V27.5359C25.1851 27.063 25.5201 26.6787 25.9351 26.6787C26.3489 26.6787 26.6851 27.063 26.6851 27.5359V39.313C26.6851 46.2787 22.7451 51.9459 17.9026 51.9459Z" fill="white"/>
<path fill-rule="evenodd" clip-rule="evenodd" d="M54.1314 51.9545C53.9389 51.9545 53.7477 51.8702 53.6014 51.703L32.9777 28.1345C32.6852 27.7988 32.6852 27.2573 32.9777 26.9216C33.2714 26.5873 33.7464 26.5873 34.0389 26.9216L54.6614 50.4916C54.9539 50.8259 54.9539 51.3688 54.6614 51.703C54.5152 51.8702 54.3227 51.9545 54.1314 51.9545Z" fill="white"/>
<path fill-rule="evenodd" clip-rule="evenodd" d="M33.5077 51.9545C33.3164 51.9545 33.1239 51.8702 32.9777 51.703C32.6852 51.3688 32.6852 50.8259 32.9777 50.4916L53.6014 26.9216C53.8939 26.5873 54.3689 26.5873 54.6614 26.9216C54.9539 27.2573 54.9539 27.8002 54.6614 28.1345L34.0389 51.703C33.8927 51.8702 33.7002 51.9545 33.5077 51.9545Z" fill="white"/>
<path fill-rule="evenodd" clip-rule="evenodd" d="M55.8314 22.2587H8.16895C7.7552 22.2587 7.41895 21.8744 7.41895 21.4016C7.41895 20.9273 7.7552 20.5444 8.16895 20.5444H55.8314C56.2464 20.5444 56.5814 20.9273 56.5814 21.4016C56.5814 21.8744 56.2464 22.2587 55.8314 22.2587Z" fill="white"/>
<path fill-rule="evenodd" clip-rule="evenodd" d="M55.8314 58.0771H8.16895C7.7552 58.0771 7.41895 57.6942 7.41895 57.2199C7.41895 56.7471 7.7552 56.3628 8.16895 56.3628H55.8314C56.2464 56.3628 56.5814 56.7471 56.5814 57.2199C56.5814 57.6942 56.2464 58.0771 55.8314 58.0771Z" fill="white"/>
</g>
<defs>
<clipPath id="clip0_77_3">
<rect width="64" height="64" fill="white"/>
</clipPath>
</defs>
</svg>
