<svg width="45" height="45" viewBox="0 0 45 45" fill="none" xmlns="http://www.w3.org/2000/svg">
<path d="M22.4972 21.7148C19.6556 21.7148 17.3438 24.0267 17.3438 26.8685C17.3438 28.6873 18.3168 30.3739 19.8608 31.2961V35.4956H25.1337V31.2961C26.6778 30.3739 27.6509 28.6873 27.6509 26.8685C27.6509 24.0267 25.3389 21.7148 22.4972 21.7148ZM24.0129 30.1115L23.5597 30.3238V33.9216H21.4348V30.3238L20.9815 30.1115C19.7278 29.5243 18.9177 28.2514 18.9177 26.8684C18.9177 24.8946 20.5235 23.2888 22.4972 23.2888C24.471 23.2888 26.0769 24.8946 26.0769 26.8684C26.0769 28.2514 25.2668 29.5243 24.0129 30.1115Z" fill="#FDC448"/>
<path d="M32.6682 15.536V10.1753C32.6409 7.4805 31.571 4.95145 29.6555 3.05395C27.7385 1.1551 25.1968 0.109375 22.4983 0.109375C19.8 0.109375 17.2582 1.15512 15.3415 3.05407C13.4261 4.95147 12.3562 7.4805 12.3288 10.1832V12.9915H13.9028V10.1911C13.9502 5.49998 17.8062 1.6833 22.4983 1.6833C27.1907 1.6833 31.0469 5.49997 31.0943 10.1832V15.5359H22.2114H4.8125V27.389C4.86015 32.0754 6.7209 36.4736 10.052 39.7733C13.3855 43.0756 17.8058 44.8943 22.4985 44.8943C27.1912 44.8943 31.6115 43.0756 34.9451 39.7733C38.2761 36.4736 40.1368 32.0754 40.1843 27.3809V15.536H32.6682ZM38.6103 27.373C38.5213 36.1664 31.2936 43.3204 22.4985 43.3204C13.7036 43.3204 6.47573 36.1664 6.38648 27.381V17.11H12.3288H32.6683H38.6104L38.6103 27.373Z" fill="#FDC448"/>
</svg>
